<svg xmlns="http://www.w3.org/2000/svg" xmlns:xlink="http://www.w3.org/1999/xlink" contentStyleType="text/css" data-diagram-type="DESCRIPTION" height="416px" preserveAspectRatio="none" style="width:1964px;height:416px;background:#FFFFFF;" version="1.1" viewBox="0 0 1964 416" width="1964px" zoomAndPan="magnify"><?plantuml 1.2026.4?><defs/><g><g class="title" data-source-line="29"><text fill="#000000" font-family="'Helvetica'" font-size="14" font-weight="700" lengthAdjust="spacing" textLength="362.4824" x="797.3038" y="20.7803">xdbg &#8212; how it connects the AI agent to PHP in Docker</text></g><!--cluster MCP client--><g class="cluster" data-qualified-name="MCP client" data-source-line="32" id="ent0001"><path d="M10,263 L74.4536,263 A6,6 0 0 1 78.4536,267 L85.4536,282 L148.18,282 A4,4 0 0 1 152.18,286 L152.18,393 A4,4 0 0 1 148.18,397 L10,397 A4,4 0 0 1 6,393 L6,267 A4,4 0 0 1 10,263" fill="#FAFAFA" style="stroke:#607D8B;stroke-width:1.5;"/><line style="stroke:#607D8B;stroke-width:1.5;" x1="6" x2="85.4536" y1="282" y2="282"/><text fill="#000000" font-family="'Helvetica'" font-size="13" font-weight="700" lengthAdjust="spacing" textLength="66.4536" x="10" y="275.0103">MCP client</text></g><!--cluster Host ? xdbg (Go binary, MCP stdio server)--><g class="cluster" data-qualified-name="Host . xdbg .Go binary. MCP stdio server." data-source-line="37" id="ent0003"><path d="M302.18,269 L566.7181,269 A6,6 0 0 1 570.7181,273 L577.7181,288 L1120.47,288 A4,4 0 0 1 1124.47,292 L1124.47,385 A4,4 0 0 1 1120.47,389 L302.18,389 A4,4 0 0 1 298.18,385 L298.18,273 A4,4 0 0 1 302.18,269" fill="#FAFAFA" style="stroke:#607D8B;stroke-width:1.5;"/><line style="stroke:#607D8B;stroke-width:1.5;" x1="298.18" x2="577.7181" y1="288" y2="288"/><text fill="#000000" font-family="'Helvetica'" font-size="13" font-weight="700" lengthAdjust="spacing" textLength="266.5381" x="302.18" y="281.0103">Host &#8212; xdbg (Go binary, MCP stdio server)</text></g><!--cluster Container (PHP app)--><g class="cluster" data-qualified-name="Container .PHP app." data-source-line="46" id="ent0009"><path d="M950.73,104 L1075.1245,104 A6,6 0 0 1 1079.1245,108 L1086.1245,123 L1945.09,123 A4,4 0 0 1 1949.09,127 L1949.09,206 A4,4 0 0 1 1945.09,210 L950.73,210 A4,4 0 0 1 946.73,206 L946.73,108 A4,4 0 0 1 950.73,104" fill="#FAFAFA" style="stroke:#607D8B;stroke-width:1.5;"/><line style="stroke:#607D8B;stroke-width:1.5;" x1="946.73" x2="1086.1245" y1="123" y2="123"/><text fill="#000000" font-family="'Helvetica'" font-size="13" font-weight="700" lengthAdjust="spacing" textLength="126.3945" x="950.73" y="116.0103">Container (PHP app)</text></g><!--entity client--><g class="entity" data-qualified-name="MCP client.client" data-source-line="33" id="ent0002"><ellipse cx="79.0876" cy="303.5" fill="#F1F1F1" rx="8" ry="8" style="stroke:#181818;stroke-width:0.5;"/><path d="M79.0876,311.5 L79.0876,338.5 M66.0876,319.5 L92.0876,319.5 M79.0876,338.5 L66.0876,353.5 M79.0876,338.5 L92.0876,353.5" fill="none" style="stroke:#181818;stroke-width:0.5;"/><text fill="#000000" font-family="'Helvetica'" font-size="13" lengthAdjust="spacing" textLength="75.8862" x="22" y="365.0103">Claude Code</text><text fill="#000000" font-family="'Helvetica'" font-size="13" lengthAdjust="spacing" textLength="114.1753" x="22" y="378.0103">/ opencode / Cursor</text></g><!--entity io--><g class="entity" data-qualified-name="Host . xdbg .Go binary. MCP stdio server..io" data-source-line="38" id="ent0004"><rect fill="#E3F2FD" height="59" rx="4" ry="4" style="stroke:#1565C0;stroke-width:0.5;" width="115.3481" x="314.18" y="308.5"/><text fill="#000000" font-family="'Helvetica'" font-size="13" lengthAdjust="spacing" textLength="59.96" x="324.18" y="328.5103">MCP stdio</text><text fill="#000000" font-family="'Helvetica'" font-size="13" lengthAdjust="spacing" textLength="95.3481" x="324.18" y="341.5103">JSON-RPC over</text><text fill="#000000" font-family="'Helvetica'" font-size="13" lengthAdjust="spacing" textLength="66.4854" x="324.18" y="354.5103">stdin/stdout</text></g><!--entity core--><g class="entity" data-qualified-name="Host . xdbg .Go binary. MCP stdio server..core" data-source-line="39" id="ent0005"><rect fill="#E3F2FD" height="72" rx="4" ry="4" style="stroke:#1565C0;stroke-width:0.5;" width="158.0171" x="553.52" y="301"/><text fill="#000000" font-family="'Helvetica'" font-size="13" lengthAdjust="spacing" textLength="57.0908" x="563.52" y="321.0103">xdbg core</text><text fill="#000000" font-family="'Helvetica'" font-size="13" lengthAdjust="spacing" textLength="119.9453" x="563.52" y="334.0103">DBGp state machine</text><text fill="#000000" font-family="'Helvetica'" font-size="13" lengthAdjust="spacing" textLength="138.0171" x="563.52" y="347.0103">(breakpoints, step, eval,</text><text fill="#000000" font-family="'Helvetica'" font-size="13" lengthAdjust="spacing" textLength="93.2217" x="563.52" y="360.0103">path translation)</text></g><!--entity listener--><g class="entity" data-qualified-name="Host . xdbg .Go binary. MCP stdio server..listener" data-source-line="40" id="ent0006"><rect fill="#E3F2FD" height="59" rx="4" ry="4" style="stroke:#1565C0;stroke-width:0.5;" width="186.9307" x="921.54" y="314.5"/><text fill="#000000" font-family="'Helvetica'" font-size="13" lengthAdjust="spacing" textLength="80.9199" x="931.54" y="334.5103">DBGp listener</text><text fill="#000000" font-family="'Helvetica'" font-size="13" lengthAdjust="spacing" textLength="72.2871" x="931.54" y="347.5103">0.0.0.0:9003</text><text fill="#000000" font-family="'Helvetica'" font-size="13" lengthAdjust="spacing" textLength="166.9307" x="931.54" y="360.5103">(one connection per session)</text></g><!--entity fpm--><g class="entity" data-qualified-name="Container .PHP app..fpm" data-source-line="47" id="ent0010"><rect fill="#E3F2FD" height="46" rx="4" ry="4" style="stroke:#1565C0;stroke-width:0.5;" width="104.5508" x="962.73" y="136"/><text fill="#000000" font-family="'Helvetica'" font-size="13" lengthAdjust="spacing" textLength="47.6899" x="972.73" y="156.0103">php-fpm</text><text fill="#000000" font-family="'Helvetica'" font-size="13" lengthAdjust="spacing" textLength="84.5508" x="972.73" y="169.0103">web entrypoint</text></g><!--entity engine--><g class="entity" data-qualified-name="Container .PHP app..engine" data-source-line="48" id="ent0011"><rect fill="#E3F2FD" height="59" rx="4" ry="4" style="stroke:#1565C0;stroke-width:0.5;" width="203.1934" x="1729.9" y="135.5"/><text fill="#000000" font-family="'Helvetica'" font-size="13" lengthAdjust="spacing" textLength="87.4707" x="1739.9" y="155.5103">Xdebug engine</text><text fill="#000000" font-family="'Helvetica'" font-size="13" lengthAdjust="spacing" textLength="134.0435" x="1739.9" y="168.5103">start_with_request=yes</text><text fill="#000000" font-family="'Helvetica'" font-size="13" lengthAdjust="spacing" textLength="183.1934" x="1739.9" y="181.5103">client_host=host.docker.internal</text></g><!--entity app--><g class="entity" data-qualified-name="Container .PHP app..app" data-source-line="49" id="ent0012"><rect fill="#E3F2FD" height="46" rx="4" ry="4" style="stroke:#1565C0;stroke-width:0.5;" width="199.188" x="1342.09" y="136"/><text fill="#000000" font-family="'Helvetica'" font-size="13" lengthAdjust="spacing" textLength="52.0317" x="1352.09" y="156.0103">PHP app</text><text fill="#000000" font-family="'Helvetica'" font-size="13" lengthAdjust="spacing" textLength="179.188" x="1352.09" y="169.0103">controllers, console commands</text></g><!--entity toggle--><g class="entity" data-qualified-name="toggle" data-source-line="66" id="ent0024"><rect fill="#E3F2FD" height="46" rx="4" ry="4" style="stroke:#1565C0;stroke-width:0.5;" width="214.4287" x="1334.47" y="42"/><text fill="#000000" font-family="'Helvetica'" font-size="13" lengthAdjust="spacing" textLength="194.4287" x="1344.47" y="62.0103">xdbg_container_enable / _disable</text><text fill="#000000" font-family="'Helvetica'" font-size="13" lengthAdjust="spacing" textLength="98.2427" x="1344.47" y="75.0103">(--xdebug-*-cmd)</text></g><!--link io to core--><!--link io to core--><g class="link" data-entity-1="ent0004" data-entity-2="ent0005" data-link-type="dependency" data-source-line="56" id="lnk16"><path d="M429.94,337.78 C466.24,337.64 508.73,337.4801 548.49,337.3201" fill="none" id="io-to-core-1" style="stroke:#37474F;stroke-width:1;"/><polygon fill="#37474F" points="553.49,337.3,544.474,333.3362,548.49,337.3201,544.5062,341.3362,553.49,337.3" style="stroke:#37474F;stroke-width:1;stroke-linejoin:miter;stroke-miterlimit:10;"/><text fill="#263238" font-family="'Helvetica'" font-size="13" lengthAdjust="spacing" textLength="62.8735" x="460.52" y="333.4503">2  dispatch</text></g><!--link core to listener--><!--link core to listener--><g class="link" data-entity-1="ent0005" data-entity-2="ent0006" data-link-type="dependency" data-source-line="57" id="lnk17"><path d="M711.91,338.44 C772.71,339.56 852.1508,341.0181 916.3108,342.1981" fill="none" id="core-to-listener-1" style="stroke:#37474F;stroke-width:1;"/><polygon fill="#37474F" points="921.31,342.29,912.3851,338.1252,916.3108,342.1981,912.238,346.1238,921.31,342.29" style="stroke:#37474F;stroke-width:1;stroke-linejoin:miter;stroke-miterlimit:10;"/><text fill="#263238" font-family="'Helvetica'" font-size="13" lengthAdjust="spacing" textLength="79.5171" x="777.04" y="335.0803">3  open :9003</text></g><!--link fpm to app--><!--link fpm to app--><g class="link" data-entity-1="ent0010" data-entity-2="ent0012" data-link-type="dependency" data-source-line="62" id="lnk22"><path d="M1067.66,159 C1135.52,159 1251.11,159 1336.81,159" fill="none" id="fpm-to-app-1" style="stroke:#37474F;stroke-width:1;"/><polygon fill="#37474F" points="1341.81,159,1332.81,155,1336.81,159,1332.81,163,1341.81,159" style="stroke:#37474F;stroke-width:1;stroke-linejoin:miter;stroke-miterlimit:10;"/><text fill="#263238" font-family="'Helvetica'" font-size="13" lengthAdjust="spacing" textLength="94.6563" x="1175.47" y="155.0103">8  execute script</text></g><!--link engine to app--><!--link app to engine--><g class="link" data-entity-1="ent0012" data-entity-2="ent0011" data-link-type="dependency" data-source-line="63" id="lnk23"><path d="M1541.62,163.01 C1554.17,163.41 1566.83,163.75 1578.9,164 C1628.47,165.01 1678.54,165.3167 1724.49,165.3467" fill="none" id="app-to-engine" style="stroke:#37474F;stroke-width:1;"/><polygon fill="#37474F" points="1729.49,165.35,1720.49,161.35,1724.49,165.35,1720.49,169.35,1729.49,165.35" style="stroke:#37474F;stroke-width:1;stroke-linejoin:miter;stroke-miterlimit:10;"/><text fill="#263238" font-family="'Helvetica'" font-size="13" lengthAdjust="spacing" textLength="119.2471" x="1579.9" y="160.0103">9  Xdebug hooks fire</text></g><!--link client to io--><g class="link" data-entity-1="ent0002" data-entity-2="ent0004" data-link-type="dependency" data-source-line="55" id="lnk15"><path d="M136.49,338 C187.69,338 257.8,338 309.1,338" fill="none" id="client-to-io" style="stroke:#37474F;stroke-width:1;"/><polygon fill="#37474F" points="314.1,338,305.1,334,309.1,338,305.1,342,314.1,338" style="stroke:#37474F;stroke-width:1;stroke-linejoin:miter;stroke-miterlimit:10;"/><text fill="#263238" font-family="'Helvetica'" font-size="13" lengthAdjust="spacing" textLength="112.7344" x="169.18" y="334.0103">1  tools/call  xdbg_*</text></g><!--link listener to engine--><g class="link" data-entity-1="ent0006" data-entity-2="ent0011" data-link-type="dependency" data-source-line="58" id="lnk18"><path d="M1108.94,323.94 C1215.3,300.94 1394.73,262.03 1548.9,228 C1608.83,214.77 1671.0014,200.8751 1724.6414,188.8351" fill="none" id="listener-to-engine" style="stroke:#37474F;stroke-width:1;"/><polygon fill="#37474F" points="1729.52,187.74,1719.8625,185.8082,1724.6414,188.8351,1721.6145,193.614,1729.52,187.74" style="stroke:#37474F;stroke-width:1;stroke-linejoin:miter;stroke-miterlimit:10;"/><text fill="#263238" font-family="'Helvetica'" font-size="13" lengthAdjust="spacing" textLength="111.3062" x="1386.3218" y="211.0103">4  Xdebug dials out</text><text fill="#263238" font-family="'Helvetica'" font-size="13" lengthAdjust="spacing" textLength="122.1226" x="1388.1373" y="224.0103">on request/command</text></g><!--link core to engine--><g class="link" data-entity-1="ent0005" data-entity-2="ent0011" data-link-type="dependency" data-source-line="59" id="lnk19"><path d="M711.81,363.59 C721.74,366.39 731.83,368.95 741.54,371 C820.3,387.61 841.17,386.55 921.54,391 C1015.14,396.18 1039.28,401.17 1132.47,391 C1322.66,370.24 1366.88,340.92 1548.9,282 C1616.71,260.05 1634.15,255.52 1699.9,228 C1723.82,217.99 1745.1415,208.033 1767.4515,197.083" fill="none" id="core-to-engine" style="stroke:#37474F;stroke-width:1;"/><polygon fill="#37474F" points="1771.94,194.88,1762.0983,195.2546,1767.4515,197.083,1765.6231,202.4362,1771.94,194.88" style="stroke:#37474F;stroke-width:1;stroke-linejoin:miter;stroke-miterlimit:10;"/><text fill="#263238" font-family="'Helvetica'" font-size="13" lengthAdjust="spacing" textLength="117.0444" x="1164.2454" y="345.0603">5  DBGp commands</text><text fill="#263238" font-family="'Helvetica'" font-size="13" lengthAdjust="spacing" textLength="148.1479" x="1155.9173" y="358.0603">breakpoint_set, step, eval</text></g><!--link core to fpm--><g class="link" data-entity-1="ent0005" data-entity-2="ent0010" data-link-type="dependency" data-source-line="60" id="lnk20"><path d="M657.37,300.76 C676.85,274.06 706.78,239.05 741.54,219 C811.19,178.83 900.0946,165.9113 957.4946,161.5213" fill="none" id="core-to-fpm" style="stroke:#37474F;stroke-width:1;"/><polygon fill="#37474F" points="962.48,161.14,953.2012,157.838,957.4946,161.5213,953.8112,165.8147,962.48,161.14" style="stroke:#37474F;stroke-width:1;stroke-linejoin:miter;stroke-miterlimit:10;"/><text fill="#263238" font-family="'Helvetica'" font-size="13" lengthAdjust="spacing" textLength="117.0381" x="758.4504" y="152.8903">6  fire HTTP request</text><text fill="#263238" font-family="'Helvetica'" font-size="13" lengthAdjust="spacing" textLength="134.4116" x="756.9873" y="165.8903">(method/headers/body)</text></g><!--link core to app--><g class="link" data-entity-1="ent0005" data-entity-2="ent0012" data-link-type="dependency" data-source-line="61" id="lnk21"><path d="M711.85,321.73 C876.37,289.59 1247.44,216.69 1304.47,202 C1326.44,196.34 1345.346,190.748 1366.686,183.948" fill="none" id="core-to-app" style="stroke:#37474F;stroke-width:1;"/><polygon fill="#37474F" points="1371.45,182.43,1361.6604,181.3513,1366.686,183.948,1364.0893,188.9737,1371.45,182.43" style="stroke:#37474F;stroke-width:1;stroke-linejoin:miter;stroke-miterlimit:10;"/><text fill="#263238" font-family="'Helvetica'" font-size="13" lengthAdjust="spacing" textLength="97.5508" x="966.5132" y="222.5403">7  run_command</text><text fill="#263238" font-family="'Helvetica'" font-size="13" lengthAdjust="spacing" textLength="135.1099" x="954.9573" y="235.5403">(docker compose exec)</text></g><!--link toggle to engine--><g class="link" data-entity-1="ent0024" data-entity-2="ent0011" data-link-type="dependency" data-source-line="67" id="lnk25"><path d="M1533.61,88.45 C1592.38,103.6 1664.0784,122.0915 1724.7284,137.7315" fill="none" id="toggle-to-engine" style="stroke:#37474F;stroke-width:1;"/><polygon fill="#37474F" points="1729.57,138.98,1721.8539,132.8594,1724.7284,137.7315,1719.8563,140.606,1729.57,138.98" style="stroke:#37474F;stroke-width:1;stroke-linejoin:miter;stroke-miterlimit:10;"/><text fill="#263238" font-family="'Helvetica'" font-size="13" lengthAdjust="spacing" textLength="119.9517" x="1579.9" y="96.2103">turn on/off at runtime</text></g><?plantuml-src VLNRRkCs47tNLmpKXoQBABRZIx81KY3n9KwHtJKs0LgWBWnAf2t2DAcIL1otM60_eb_OB-cGactvjX9WoPmpXpDdPYZ1fXQi0irdgGNADKiiLp88p9pBZ6YoW9WayvbMkQHT9PI6dmR-gY1CIgXQSZc3AH66LIoKJKakx419-vai68H39jwOvGa9ZwDU-DyC6isAiTnPIwRXfh9-hxLQbX4rhrlNhS6-qV6LWAjEywfPzSumAJ9Zy4y0yA0qPRf4TkhNlPi7NFNHs9LW42j17Un0Xtjt1z-gmQ9yHCv4IRplqMyEhWQz_IqRxKwxMz_XeSIIc9WJDAX-ir_Vf-btsetwBWsNbkafIKw5q-qF1erzdbQxVTzf8KzWkSLCtcayW_--_mkfMWAta2WfCKq3DcLm_mGee_GzD1gES4VegMJET13y37U75ppt1w-tyAaxWaHmvtW45Aoh4svneK-191P33Bk2v9H1Lr4sbZLG6PC9laCDkhasIeT0JEddyZWUoQUdNk-vVrlazyCeXifOhu27dZqgYBaaUdNXyp2MSWM6wJUcpuimjsqGRX1Z-UlBby_Hrr4N52B7qgtA6lwgtFg0kTfrzRibIcEElOV736c8PR0WISebhft5cf5vfh38vWADBBi0zaR4nHYhRrEmcaWZY1ldyq8GfDhTmTCAZhxIHLI_zFVjntgzYVnAidMnaGCo7433ZDdmhHsH4mM8_aWvfKp-wO-Iw9VrTkvnQDpudYpFrwV78NPA5yUGS3VyFopH5dRcsf1asM4fiZIBfjbYB9Si1cmDlVBY-LnmVHVyEsLnFaFOp8kDscixMNARJZJxAsV6tgsO6SkYoIOfTiYT-xcallil_UH98ZnvGRBBNqQ931YvLa8mZLN4FqO99_jYGIGrtXrXw8iH7ifOc0h-hHKFOraQJyexUFxosyjHJSkvZ901oteBOGDmkfKmjOG80Nu89X_2mDMyBBD3NG5-FWnsNfA6GL7qIfqTeWb-Ki7tLnXiJ0vNfe2e5a2fFUNuDG6SZh44lB05I-bhfJoLVRR-RG3Vrci92-Vjh4mCizLngP0uYP6XWsBZXn26hw-ZzPO5ozc2sLJHMie8dfUc5YkwEgyGeEAEu1ehdSj96K7fMZI62ojJUB2pTvQWgw_grlC6l277EJU9vfaD0sVPpV3ZHg5KgRdnmOQdwlporCCphiGhMLFJwT6gxvqxasGzK1CcIIpSsJh1-hfNF1gYwDqpHX-YP46Buy2g6Re7nMClP9jhkTwTMAUEvGiC-dy0?></g></svg>